<?xml version="1.0" encoding="UTF-8" standalone="no"?>
<!DOCTYPE svg PUBLIC "-//W3C//DTD SVG 1.1//EN" "http://www.w3.org/Graphics/SVG/1.1/DTD/svg11.dtd">
<svg width="100%" height="100%" viewBox="0 0 2032 469" version="1.1" xmlns="http://www.w3.org/2000/svg" xmlns:xlink="http://www.w3.org/1999/xlink" xml:space="preserve" xmlns:serif="http://www.serif.com/" style="fill-rule:evenodd;clip-rule:evenodd;stroke-linejoin:round;stroke-miterlimit:2;">
    <g id="Artboard1" transform="matrix(1.61608,0,0,0.607255,-1812.65,-283.951)">
        <rect x="1121.63" y="467.597" width="1257.19" height="771.459" style="fill:none;"/>
        <g>
            <g id="symbol.svg" transform="matrix(0.618782,0,0,1.64676,1416.21,853.327)">
                <g transform="matrix(1,0,0,1,-433,-179.5)">
                    <g transform="matrix(0.1,0,0,-0.1,0,359)">
                        <path d="M6500,3580C6117,3551 5803,3438 5436,3196C5132,2995 4452,2465 4136,2181C4065,2117 3982,2044 3951,2018C3067,1282 2840,1108 2555,945C2230,759 2075,713 1795,723C1518,733 1288,808 1060,964C963,1030 809,1184 742,1282C664,1396 586,1567 555,1691C396,2338 753,2985 1415,3249C1901,3442 2445,3397 2860,3129C3044,3010 3196,2874 3637,2437L3969,2107L4017,2147C4043,2170 4074,2197 4084,2209L4104,2231L3979,2358C3378,2969 3363,2984 3185,3117C2887,3340 2548,3489 2200,3551C2033,3581 1782,3587 1612,3566C772,3459 155,2895 18,2110C2,2013 2,1709 19,1605C117,999 499,480 1044,214C1323,78 1672,0 2005,0C2238,0 2566,69 2795,165C2971,240 3212,380 3372,501C3685,738 4294,1229 4574,1470C4851,1708 4912,1761 5015,1846C5289,2073 5842,2492 6035,2620C6317,2806 6563,2880 6860,2867C7345,2845 7765,2576 7980,2150C8075,1961 8112,1800 8113,1575C8114,1401 8104,1339 8050,1179C7872,646 7303,253 6669,223C6303,206 5942,318 5655,537C5506,650 5231,916 4788,1376L4680,1487L4607,1426L4533,1365L4571,1320C4667,1207 5256,624 5352,546C5688,274 6041,108 6420,46C6883,-30 7254,10 7595,174C7817,280 7972,393 8150,576C8601,1042 8745,1566 8586,2164C8409,2830 7880,3335 7165,3519C6968,3570 6698,3595 6500,3580Z" style="fill:rgb(0,91,150);fill-rule:nonzero;"/>
                    </g>
                </g>
            </g>
            <g id="Fredi" transform="matrix(0.409724,0,0,1.26115,1708.89,593.569)">
                <path d="M152.181,404.166L32.748,404.166C26.327,404.166 23.116,401.39 23.116,395.838C23.116,390.286 26.327,387.51 32.748,387.51L59.717,387.51C66.138,387.51 69.348,383.624 69.348,375.852L69.348,32.2C69.348,24.428 66.138,20.541 59.717,20.541L32.748,20.541C26.327,20.541 23.116,17.766 23.116,12.214C23.116,6.662 27.611,3.886 36.601,3.886L300.509,3.886L325.552,92.714L327.478,104.928C327.478,110.109 324.696,112.7 319.131,112.7C316.134,112.7 314.208,111.59 313.352,109.369L310.783,106.593L301.152,84.941C296.871,73.838 290.557,62.734 282.209,51.631C273.862,40.528 264.765,32.848 254.919,28.591C245.074,24.335 231.803,22.207 215.108,22.207L168.234,21.652L157.96,21.652C150.683,21.652 143.62,21.744 136.77,21.929C129.921,22.114 124.57,23.872 120.717,27.203C118.577,29.794 117.293,32.663 116.865,35.809C116.437,38.955 116.223,42.933 116.223,47.745L116.223,187.093C116.223,192.275 121.146,194.866 130.991,194.866L169.518,194.31C190.922,194.31 206.547,188.203 216.392,175.99C220.245,171.548 223.135,165.441 225.061,157.669C226.987,149.897 227.951,139.903 227.951,127.69C227.951,120.657 231.375,117.141 238.224,117.141C243.361,117.141 245.93,119.732 245.93,124.914L246.572,134.907L246.572,279.252C246.572,291.836 243.361,298.128 236.94,298.128C230.947,298.128 227.951,295.352 227.951,289.8L228.593,279.807C228.593,249.828 222.707,230.674 210.934,222.347C199.162,214.019 172.729,209.855 131.633,209.855C124.784,209.855 120.503,211.243 118.791,214.019C117.079,216.795 116.223,223.92 116.223,235.393L116.223,375.852C116.223,383.254 119.433,386.955 125.854,386.955L152.181,386.955C158.602,386.955 161.813,389.916 161.813,395.838C160.957,399.169 159.779,401.39 158.281,402.5C156.783,403.61 154.75,404.166 152.181,404.166Z" style="fill:rgb(0,91,150);fill-rule:nonzero;"/>
                <path d="M495.07,404.166L392.974,404.166C386.981,404.166 383.984,401.575 383.984,396.393C383.984,390.841 386.981,388.066 392.974,388.066L411.595,388.066C417.588,388.066 420.585,384.364 420.585,376.962L420.585,204.303C420.585,199.492 419.729,195.791 418.016,193.2C416.304,190.609 412.665,187.833 407.1,184.872L398.111,180.431L392.332,177.1C389.335,175.62 387.837,173.954 387.837,172.103C387.837,170.623 388.907,168.957 391.047,167.107L423.153,152.672C428.718,150.822 432.571,148.971 434.711,147.121L452.048,137.128L455.259,136.017C459.968,136.017 462.322,138.053 462.322,142.124L462.322,194.31L462.964,202.083L466.817,193.755L470.67,182.652C475.378,170.068 484.689,158.964 498.602,149.341C512.514,139.718 526.32,134.907 540.018,134.907C552.86,134.907 563.027,137.775 570.518,143.512C578.01,149.249 581.755,156.929 581.755,166.552C581.755,183.947 571.91,192.645 552.218,192.645L547.081,192.645C537.664,191.534 532.099,189.869 530.386,187.648L520.112,177.655C516.688,175.434 512.835,174.324 508.554,174.324C498.709,174.324 490.468,180.061 483.833,191.534C477.198,203.008 471.954,215.037 468.101,227.621C464.249,240.205 462.322,252.233 462.322,263.707L462.322,376.962C462.322,384.364 465.319,388.066 471.312,388.066L495.07,388.066C501.063,388.066 504.06,390.841 504.06,396.393C504.06,401.575 501.063,404.166 495.07,404.166Z" style="fill:rgb(0,91,150);fill-rule:nonzero;"/>
                <path d="M907.307,268.148L714.673,268.148C714.673,305.9 723.235,335.694 740.358,357.531C757.481,379.368 781.025,390.286 810.99,390.286C826.829,390.286 840.741,387.325 852.728,381.403C868.994,373.261 884.191,357.531 898.318,334.214C900.458,330.883 903.026,329.217 906.023,329.217C910.732,329.217 913.086,331.253 913.086,335.324C913.086,338.655 911.053,343.929 906.986,351.147C902.919,358.364 898.318,364.748 893.181,370.3C869.208,398.059 836.675,411.938 795.579,411.938C757.053,411.938 725.803,399.539 701.831,374.741C677.858,349.944 665.872,317.188 665.872,276.476C665.872,235.393 677.644,201.528 701.189,174.879C724.733,148.231 755.126,134.907 792.369,134.907C825.759,134.907 853.263,146.658 874.88,170.16C896.498,193.663 907.307,223.364 907.307,259.266L907.307,268.148ZM791.727,149.341C769.895,149.341 751.595,158.687 736.826,177.378C722.057,196.068 714.673,220.218 714.673,249.828L816.769,249.828L834.748,250.938L837.959,250.938C843.524,250.938 847.163,249.55 848.875,246.774C850.587,243.998 851.443,237.614 851.443,227.621C851.443,204.674 845.878,185.89 834.748,171.271C823.618,156.651 809.278,149.341 791.727,149.341Z" style="fill:rgb(0,91,150);fill-rule:nonzero;"/>
                <path d="M1234.14,161L1236.07,157.669L1236.71,141.014L1236.71,68.286C1236.71,60.144 1232,53.667 1222.59,48.855L1212.95,43.859L1207.82,41.083C1205.25,39.972 1203.96,38.307 1203.96,36.086C1203.96,33.866 1205.46,31.83 1208.46,29.979L1238.64,17.21L1268.17,1.11L1270.74,0L1275.88,1.666L1278.45,6.107L1278.45,339.766C1278.45,347.908 1279.95,353.552 1282.94,356.698C1285.94,359.844 1292.79,362.528 1303.49,364.748C1308.63,366.599 1311.2,369.005 1311.2,371.966C1309.91,373.816 1308.84,374.741 1307.99,374.741C1296.43,379.183 1287.55,383.069 1281.34,386.4C1275.13,389.731 1264.11,396.393 1248.27,406.386L1245.06,408.607C1239.49,408.607 1236.71,405.091 1236.71,398.059L1236.71,395.283L1237.35,384.734L1237.35,369.745L1236.71,360.862L1230.29,367.524C1205.89,395.653 1179.56,409.717 1151.31,409.717C1119.63,409.717 1093.41,397.226 1072.65,372.243C1051.89,347.26 1041.51,315.893 1041.51,278.141C1041.51,253.344 1045.79,230.304 1054.35,209.022C1062.91,187.741 1077.79,169.79 1098.98,155.171C1120.17,140.551 1142.75,133.241 1166.72,133.241C1177.85,133.241 1189.52,135.277 1201.72,139.348C1213.92,143.42 1222.59,148.231 1227.72,153.783L1234.14,161ZM1167.36,381.959C1183.2,381.959 1197.22,377.887 1209.42,369.745C1221.62,361.602 1230.72,350.129 1236.71,335.324L1236.71,216.517C1236.71,203.563 1236.28,194.958 1235.43,190.702C1234.57,186.445 1231.79,181.171 1227.08,174.879C1225.37,171.918 1222.37,168.587 1218.09,164.886C1205.68,154.523 1190.27,149.341 1171.86,149.341C1150.45,149.341 1132.48,157.854 1117.92,174.879C1109.79,184.872 1103.15,198.844 1098.02,216.795C1092.88,234.745 1090.31,253.159 1090.31,272.034C1090.31,305.715 1097.27,332.456 1111.18,352.257C1125.09,372.058 1143.82,381.959 1167.36,381.959Z" style="fill:rgb(0,91,150);fill-rule:nonzero;"/>
                <path d="M1458.24,404.166C1451.82,404.166 1447.86,403.795 1446.36,403.055C1444.86,402.315 1444.12,400.094 1444.12,396.393C1444.12,391.211 1447.11,388.621 1453.1,388.621L1471.73,388.621C1477.72,388.621 1480.71,384.92 1480.71,377.517L1480.71,204.303C1480.71,199.492 1479.86,195.791 1478.15,193.2C1476.43,190.609 1472.8,187.833 1467.23,184.872L1457.6,180.431L1451.82,177.1C1449.25,175.62 1447.97,173.954 1447.97,172.103C1447.97,171.363 1448.29,170.53 1448.93,169.605C1449.57,168.68 1450.75,167.662 1452.46,166.552L1483.28,152.672L1512.18,137.128L1515.39,136.017C1520.1,136.017 1522.45,138.053 1522.45,142.124L1522.45,376.407C1522.45,384.179 1525.45,388.066 1531.44,388.066L1550.06,388.066C1556.06,388.066 1559.05,390.656 1559.05,395.838C1559.05,401.39 1554.56,404.166 1545.57,404.166L1458.24,404.166ZM1467.23,43.303C1467.23,32.57 1470.23,23.502 1476.22,16.1C1482.21,8.698 1489.92,4.997 1499.34,4.997C1508.33,4.997 1515.82,8.698 1521.81,16.1C1527.8,23.502 1530.8,32.755 1530.8,43.859C1530.8,54.222 1527.59,63.012 1521.17,70.229C1514.75,77.447 1507.04,81.055 1498.05,81.055C1489.49,81.055 1482.21,77.447 1476.22,70.229C1470.23,63.012 1467.23,54.037 1467.23,43.303Z" style="fill:rgb(0,91,150);fill-rule:nonzero;"/>
            </g>
        </g>
    </g>
</svg>
