<?xml version="1.0" encoding="UTF-8" standalone="no"?>
<!DOCTYPE svg PUBLIC "-//W3C//DTD SVG 1.1//EN" "http://www.w3.org/Graphics/SVG/1.1/DTD/svg11.dtd">
<svg width="100%" height="100%" viewBox="0 0 954 241" version="1.1" xmlns="http://www.w3.org/2000/svg" xmlns:xlink="http://www.w3.org/1999/xlink" xml:space="preserve" xmlns:serif="http://www.serif.com/" style="fill-rule:evenodd;clip-rule:evenodd;stroke-linejoin:round;stroke-miterlimit:2;">
    <g transform="matrix(1,0,0,1,0,-465.106)">
        <g id="Artboard2" transform="matrix(1.16365,0,0,0.785572,1536.7,827.723)">
            <rect x="-1320.59" y="-461.597" width="819.304" height="305.976" style="fill:none;"/>
            <g transform="matrix(557.914,0,0,1522.94,-10194.4,-62212.1)">
                <g transform="matrix(0.018787,0,0,0.00850193,15.9658,40.5148)">
                    <path d="M8,8C3.61,8 0,11.596 0,16C0,20.401 3.599,24 8,24C10.646,24 12.42,22.745 13.777,21.033C13.147,20.063 12.617,19.057 12.139,18.115C10.997,19.94 9.828,21 8,21C5.221,21 3,18.779 3,16C3,13.224 5.238,11 8,11C9.427,11 10.268,11.521 11.156,12.525C12.045,13.53 12.835,15.049 13.652,16.674C14.47,18.299 15.315,20.032 16.586,21.465C17.856,22.898 19.697,24 22,24C26.363,24 30,20.414 30,16C30,11.599 26.401,8 22,8C19.35,8 17.577,9.265 16.221,10.988C16.85,11.961 17.379,12.969 17.857,13.912C19.003,12.069 20.172,11 22,11C24.779,11 27,13.221 27,16C27,18.766 24.719,21 22,21C20.567,21 19.721,20.477 18.83,19.473C17.939,18.468 17.149,16.951 16.332,15.326C15.515,13.701 14.672,11.97 13.404,10.537C12.137,9.104 10.299,8 8,8Z" style="fill:rgb(0,91,150);fill-rule:nonzero;"/>
                </g>
                <g transform="matrix(0.0267684,0,0,0.0145259,16.35,40.3634)">
                    <path d="M13.864,15.941L13.864,16.445L10.073,16.445L10.073,19.222L12.816,19.222L12.816,19.726L10.073,19.726L10.073,23.71L8.767,23.71L8.767,15.941L13.864,15.941Z" style="fill:rgb(0,91,150);"/>
                    <path d="M15.833,17.599L16.015,17.599L16.173,18.823C16.267,18.644 16.384,18.48 16.525,18.331C16.665,18.183 16.82,18.054 16.99,17.945C17.16,17.835 17.34,17.75 17.529,17.69C17.719,17.629 17.911,17.599 18.107,17.599C18.282,17.599 18.455,17.622 18.625,17.669C18.795,17.716 18.954,17.79 19.103,17.892L18.728,18.894C18.65,18.808 18.567,18.738 18.482,18.686C18.396,18.633 18.308,18.592 18.218,18.563C18.128,18.533 18.036,18.515 17.942,18.507C17.849,18.499 17.755,18.495 17.661,18.495C17.513,18.495 17.367,18.517 17.225,18.56C17.082,18.603 16.946,18.666 16.817,18.75C16.689,18.834 16.569,18.942 16.46,19.072C16.351,19.203 16.255,19.357 16.173,19.532L16.173,23.71L14.984,23.71L14.984,17.927L15.833,17.599Z" style="fill:rgb(0,91,150);"/>
                    <path d="M22.706,23.839C22.3,23.839 21.918,23.763 21.561,23.611C21.203,23.458 20.892,23.251 20.626,22.989C20.36,22.728 20.15,22.42 19.996,22.067C19.842,21.713 19.765,21.337 19.765,20.939C19.765,20.458 19.835,20.014 19.976,19.606C20.116,19.197 20.316,18.845 20.573,18.548C20.831,18.251 21.141,18.019 21.502,17.851C21.863,17.683 22.267,17.599 22.712,17.599C23.103,17.599 23.462,17.668 23.79,17.807C24.118,17.945 24.4,18.131 24.637,18.363C24.873,18.596 25.057,18.864 25.188,19.169C25.318,19.474 25.384,19.792 25.384,20.124L20.913,20.124C20.913,20.527 20.965,20.9 21.068,21.243C21.172,21.587 21.317,21.884 21.505,22.134C21.692,22.384 21.915,22.579 22.173,22.72C22.431,22.861 22.714,22.931 23.023,22.931C23.28,22.931 23.528,22.889 23.767,22.805C24.005,22.721 24.221,22.611 24.414,22.474C24.608,22.337 24.773,22.181 24.909,22.005C25.046,21.829 25.142,21.648 25.196,21.46L25.542,21.612C25.456,21.921 25.317,22.21 25.126,22.48C24.935,22.749 24.711,22.985 24.455,23.186C24.199,23.387 23.921,23.546 23.62,23.663C23.319,23.78 23.015,23.839 22.706,23.839ZM23.89,19.644C23.89,19.417 23.85,19.206 23.77,19.011C23.69,18.816 23.579,18.647 23.439,18.504C23.298,18.362 23.134,18.249 22.946,18.167C22.759,18.085 22.558,18.044 22.343,18.044C22.163,18.044 21.991,18.084 21.827,18.164C21.663,18.244 21.517,18.356 21.388,18.498C21.259,18.641 21.152,18.81 21.068,19.005C20.984,19.2 20.935,19.411 20.919,19.638L23.89,19.644Z" style="fill:rgb(0,91,150);"/>
                    <path d="M31.349,23.13C31.212,23.239 31.064,23.338 30.903,23.426C30.743,23.514 30.576,23.588 30.402,23.649C30.229,23.709 30.054,23.756 29.878,23.789C29.702,23.822 29.53,23.839 29.362,23.839C29.011,23.839 28.682,23.757 28.375,23.593C28.068,23.429 27.801,23.208 27.572,22.931C27.344,22.654 27.163,22.33 27.03,21.961C26.898,21.592 26.831,21.202 26.831,20.792C26.831,20.386 26.914,19.991 27.08,19.609C27.246,19.226 27.472,18.885 27.757,18.586C28.042,18.287 28.375,18.048 28.756,17.868C29.137,17.689 29.544,17.599 29.978,17.599C30.271,17.599 30.525,17.65 30.742,17.751C30.959,17.853 31.161,17.987 31.349,18.155L31.349,14.991L32.187,14.652L32.532,14.652L32.532,23.71L31.349,23.71L31.349,23.13ZM31.349,19.62C31.349,19.386 31.305,19.172 31.217,18.979C31.129,18.785 31.015,18.619 30.874,18.481C30.734,18.342 30.574,18.235 30.397,18.158C30.219,18.082 30.04,18.044 29.86,18.044C29.622,18.044 29.4,18.103 29.192,18.22C28.985,18.337 28.805,18.502 28.65,18.715C28.496,18.928 28.374,19.182 28.284,19.477C28.194,19.772 28.15,20.097 28.15,20.452C28.15,20.835 28.198,21.193 28.296,21.525C28.394,21.857 28.527,22.147 28.697,22.395C28.867,22.643 29.067,22.838 29.295,22.981C29.524,23.123 29.769,23.195 30.03,23.195C30.155,23.195 30.281,23.178 30.408,23.145C30.535,23.112 30.655,23.067 30.769,23.01C30.882,22.953 30.988,22.888 31.088,22.814C31.188,22.739 31.275,22.661 31.349,22.579L31.349,19.62Z" style="fill:rgb(0,91,150);"/>
                    <path d="M34.724,17.939L35.562,17.599L35.907,17.599L35.907,23.71L34.724,23.71L34.724,17.939ZM34.63,15.413C34.63,15.32 34.648,15.232 34.683,15.15C34.718,15.068 34.767,14.995 34.829,14.933C34.892,14.87 34.964,14.821 35.046,14.786C35.128,14.751 35.216,14.734 35.31,14.734C35.403,14.734 35.491,14.751 35.573,14.786C35.655,14.821 35.728,14.87 35.79,14.933C35.853,14.995 35.901,15.068 35.937,15.15C35.972,15.232 35.989,15.32 35.989,15.413C35.989,15.507 35.972,15.595 35.937,15.677C35.901,15.759 35.853,15.831 35.79,15.894C35.728,15.956 35.655,16.005 35.573,16.04C35.491,16.075 35.403,16.093 35.31,16.093C35.216,16.093 35.128,16.075 35.046,16.04C34.964,16.005 34.892,15.956 34.829,15.894C34.767,15.831 34.718,15.759 34.683,15.677C34.648,15.595 34.63,15.507 34.63,15.413Z" style="fill:rgb(0,91,150);"/>
                </g>
            </g>
        </g>
    </g>
</svg>
